<svg width="627" height="561" viewBox="0 0 627 561" fill="none" xmlns="http://www.w3.org/2000/svg">
<path d="M323.699 26.5612C370.553 30.6753 412.264 46.3307 446.045 79.4065C452.131 85.3672 458.147 81.579 463.664 79.4473C474.574 75.2381 483.154 67.5666 491 59.1482C491.749 58.3471 492.483 57.5325 494.258 55.5772C491.915 66.0866 487.271 73.9346 482.309 81.5247C455.596 122.462 419.153 153.664 378.301 180.358C368.903 186.496 359.103 191.981 348.983 196.937C346.211 198.295 344.339 198.173 341.609 196.557C323.075 185.654 304.236 184.296 285.384 195.892C282.417 197.711 279.714 198.499 276.415 196.72C220.482 166.753 172.394 128.369 139.208 74.0297C136.186 69.0873 133.83 63.7647 131.127 58.5372C134.565 56.6092 135.59 59.9086 137.074 61.4293C144.975 69.5218 153.888 76.175 164.465 80.5878C171.202 83.3984 176.608 82.7195 182.403 77.2341C209.337 51.7347 241.552 36.0929 278.397 29.3039C287.408 27.6474 296.363 26.6562 305.484 26.5476C311.556 25.7737 317.627 25.7737 323.699 26.5476V26.5612Z" fill="white"/>
<path d="M227.815 229.076C207.742 226.401 192.051 209.306 201.421 188.831C202.766 185.885 203.667 185.613 206.204 187.555C224.017 201.16 243.271 212.579 263.648 222.857C257.868 227.528 250.784 227.569 244.657 230.026C239.099 228.804 233.36 230.542 227.815 229.076Z" fill="white"/>
<path d="M362.471 222.735C383.583 212.212 403.461 200.046 422.078 185.885C432.433 205.233 423.52 221.92 404.334 227.718C391.983 231.452 379.923 231.344 367.849 226.469C365.645 225.587 364.01 224.609 362.471 222.735Z" fill="white"/>
<path d="M466.742 88.4223C461.751 98.9995 453.42 107.173 445.533 115.374C418.571 143.399 387.658 166.658 353.544 185.83C348.914 188.437 344.783 188.736 339.931 186.156C323.089 177.236 304.749 175.484 288.558 184.785C274.96 192.606 268.514 182.449 260.238 178.077C240.609 167.704 223.06 154.235 206.384 139.57C189.195 124.458 173.073 108.545 159.475 90.2417C159.253 89.9294 159.35 89.3999 159.294 88.9518C160.875 87.3225 162.469 88.7617 163.661 89.2913C173.17 93.6226 180.309 89.5085 187.324 83.6293C195.987 76.3515 204.194 68.5985 213.966 62.5291C237.892 47.6613 263.995 39.3923 291.941 36.2423C331.988 31.7344 369.638 39.4195 404.833 58.4558C416.935 65.0003 428.316 72.9027 437.798 82.6788C445.006 90.1059 452.38 92.129 461.876 89.074C463.318 88.6124 464.718 87.3632 466.728 88.4223H466.742Z" fill="white"/>
<path d="M312.567 416.194C307.771 404.408 304.333 393.016 299.454 382.127C289.556 360.062 276.124 340.755 256.551 325.995C252.351 322.818 253.82 321.406 257.022 320.007C272.478 313.273 278.55 302.085 276.72 285.452C275.195 271.616 278.578 258.065 284.996 245.6C290.527 234.86 299.329 226.632 311.417 224.595C319.471 223.238 326.845 228.927 332.473 234.507C342.163 244.107 346.197 256.49 348.637 269.606C350.3 278.608 350.383 287.638 349.759 296.572C349.108 306.009 354.542 311.128 361.251 315.88C362.54 316.79 364.134 317.305 365.548 318.066C373.436 322.261 373.145 322.628 366.297 328.29C348.789 342.778 335.759 360.66 326.527 381.176C321.8 391.672 317.793 402.439 314.55 413.464C314.342 414.198 313.621 414.782 312.581 416.194H312.567Z" fill="white"/>
<path d="M377.636 386.404C381.587 377.605 387.34 370.069 394.271 363.335C397.431 360.986 400.453 358.419 403.974 356.546C414.592 350.666 425.225 344.787 435.843 338.908C438.851 336.708 442.594 335.785 445.546 333.477C449.733 331.997 451.978 328.317 454.252 325.14C456.9 321.433 454.349 318.31 450.897 316.26C439.516 309.539 428.122 302.845 416.644 296.3C410.919 293.028 404.889 290.272 399.815 285.981C396.599 283.591 393.979 280.93 395.657 276.477C394.617 270.733 396.904 268.275 403.004 267.339C420.345 264.65 435.011 256.531 447.224 244.256C452.866 238.594 456.608 231.588 460.781 224.908C466.645 208.614 465.868 192.334 460.781 176.041C458.23 172.85 455.86 169.591 456.622 165.178C458.535 162.137 461.696 160.127 463.553 157.031C466.326 153.868 469.098 150.704 471.871 147.527C476.861 141.634 477.097 141.634 480.188 147.527C481.574 153.759 484.832 159.285 487.119 165.165C488.533 170.134 490.238 175.022 491.277 180.1C493.232 184.418 491.596 189.456 494.05 193.678C494.798 201.445 495.907 209.225 496.004 216.992C496.296 240.658 496.406 264.324 496.004 287.977C495.769 301.935 497.016 315.825 497.917 329.661C498.763 342.696 501.133 355.812 503.767 368.752C505.5 373.124 505.361 377.849 506.54 382.33C506.928 386.512 507.399 390.694 509.312 394.55C510.047 399.696 512.597 404.367 513.471 409.486C515.287 413.424 514.677 418.135 517.629 421.706C518.877 425.82 519.833 430.029 521.788 433.926L527 449.025L525.766 450.288C514.275 441.218 502.797 432.134 491.305 423.064C486.661 419.276 482.655 420.959 478.829 424.422C471.441 430.26 468.53 439.1 463.526 446.527C455.194 458.883 447.21 471.483 439.419 484.165C436.397 489.093 434.263 485.278 431.712 484.138C429.411 479.82 424.282 477.824 422.036 473.75C416.672 464.029 405.804 460.498 398.609 452.772C392.649 446.364 386.563 447.545 381.504 454.85C369.749 471.836 359.38 489.691 348.346 507.111C338.393 522.821 328.245 538.409 318.722 554.376C313.649 562.903 312.29 562.767 307.078 554.471C287.436 523.188 267.391 492.149 248.511 460.403C247.693 459.046 246.709 457.783 245.78 456.493C239.362 447.586 234.51 446.975 226.04 453.818C215.006 462.725 205.414 473.167 194.587 482.332C188.599 487.41 188.571 487.709 184.69 481.218C176.317 467.206 167.307 453.601 158.587 439.806C157.506 438.108 156.605 436.194 154.581 435.257C153.32 430.192 151.019 425.82 146.264 423.037C141.648 419.276 137.032 421.34 132.402 423.037C124.154 429.785 115.962 436.601 107.63 443.241C106.009 444.531 104.248 445.549 103.306 447.477C100.2 447.545 99.2994 446.174 100.533 443.404C101.462 441.136 102.377 438.882 103.306 436.615C105.648 431.808 106.619 426.526 108.85 421.679C109.779 418.515 110.694 415.352 111.623 412.174C115.643 399.696 119.136 387.096 121.326 374.17C125.79 353.328 128.618 332.309 128.964 310.992C128.992 309.634 129.006 308.29 129.643 307.04C130.35 301.569 130.919 300.55 130.35 297.196C130.059 268.316 130.752 239.463 129.99 210.61C129.754 201.73 132.652 192.999 133.802 184.16C135.258 177.276 137.254 170.528 139.347 163.807C141.204 160.358 142.757 156.801 143.506 152.945C144.517 151.75 144.31 149.808 145.987 149.007C148.038 147.554 150.256 147.174 152.655 148.016C153.611 148.477 153.944 149.482 154.595 150.229C160.071 153.596 162.871 159.313 167.071 163.807C170.135 168.396 166.323 171.315 164.299 174.669C164.52 176.652 163.855 178.403 162.912 180.1C159.087 193.678 157.465 207.243 162.912 220.821C168.319 235.987 178.715 247.189 192.009 256.11C201.463 261.337 211.263 265.601 222.117 267.379C230.338 268.737 230.324 269.009 229.381 277.332C229.09 279.953 229.409 282.858 226.65 284.61C225.722 285.519 224.807 286.416 223.878 287.325C220.274 289.308 216.323 290.638 212.788 292.757C210.861 293.517 209.655 295.676 207.243 295.472C201.144 300.903 193.492 303.782 186.464 307.692C184.537 308.453 183.331 310.612 180.919 310.408C178.882 313.517 175.056 314.413 172.574 317.075C168 321.949 167.847 323.253 172.602 328.086C174.335 329.838 176.109 331.549 177.981 333.164C191.136 340.157 203.986 347.666 217.224 354.482C229.118 360.592 237.463 370.029 244.422 380.796C253.695 395.148 261.61 410.328 266.712 426.499C270.51 438.57 276.512 449.758 279.936 461.924C283.416 474.294 287.588 486.473 291.192 498.815C294.782 511.144 298.775 523.364 302.157 535.761C302.393 536.63 301.977 535.571 302.31 536.426C304.292 541.613 306.593 546.8 312.956 547.669C317.17 548.239 321.509 542.523 323.574 535.869C336.785 493.18 348.096 449.88 366.408 408.834C369.818 401.19 374.462 394.143 377.678 386.417L377.636 386.404Z" fill="white"/>
</svg>
