<svg width="358" height="367" viewBox="0 0 358 367" fill="none" xmlns="http://www.w3.org/2000/svg">
<g clip-path="url(#clip0_109_724)">
<path fill-rule="evenodd" clip-rule="evenodd" d="M332.268 36.9035C333.983 34.9423 335.295 32.6624 336.129 30.1942C336.963 27.7259 337.303 25.1175 337.129 22.518C336.955 19.9184 336.27 17.3786 335.115 15.0435C333.959 12.7084 332.355 10.6238 330.394 8.90875C328.432 7.19365 326.152 5.88164 323.684 5.04763C321.216 4.21362 318.608 3.87393 316.008 4.04797C313.408 4.22201 310.869 4.90637 308.534 6.06197C306.199 7.21757 304.114 8.82177 302.399 10.783L201.05 126.61L115.033 11.9333C113.186 9.47011 110.79 7.47084 108.036 6.09386C105.282 4.71688 102.246 4 99.1667 4H19.8333C16.1501 4 12.5395 5.02567 9.40634 6.96209C6.27315 8.89851 3.74108 11.6692 2.09387 14.9636C0.446652 18.258 -0.25063 21.9461 0.0801499 25.6145C0.41093 29.2829 1.7567 32.7867 3.96668 35.7333L131.634 205.943L24.7322 328.116C23.0171 330.078 21.7051 332.357 20.871 334.826C20.037 337.294 19.6974 339.902 19.8714 342.502C20.0454 345.101 20.7298 347.641 21.8854 349.976C23.041 352.311 24.6452 354.396 26.6064 356.111C28.5676 357.826 30.8475 359.138 33.3158 359.972C35.784 360.806 38.3924 361.146 40.992 360.972C43.5915 360.798 46.1313 360.113 48.4664 358.958C50.8015 357.802 52.8861 356.198 54.6012 354.237L155.949 238.39L241.967 353.067C243.814 355.53 246.21 357.529 248.964 358.906C251.718 360.283 254.754 361 257.833 361H337.167C340.85 361 344.46 359.974 347.594 358.038C350.727 356.102 353.259 353.331 354.906 350.036C356.553 346.742 357.251 343.054 356.92 339.386C356.589 335.717 355.243 332.213 353.033 329.267L225.366 159.057L332.268 36.9035ZM267.75 321.333L59.5 43.6667H89.25L297.5 321.333H267.75Z" fill="white"/>
</g>
<defs>
<clipPath id="clip0_109_724">
<rect width="358" height="367" fill="white"/>
</clipPath>
</defs>
</svg>
