<svg width="551" height="512" viewBox="0 0 551 512" fill="none" xmlns="http://www.w3.org/2000/svg">
<path d="M526 83.9999C523.15 92.7899 521.97 101.96 520.1 110.97C513.43 143.04 507.05 175.17 500.57 207.29C493.68 241.48 486.85 275.69 479.93 309.87C473.49 341.67 466.97 373.46 460.46 405.25C457.98 417.39 455.95 429.64 452.82 441.61C448.78 457.06 439.86 468.69 423.42 472.31C408.93 475.51 396.7 469.92 385.64 461.01C360.09 440.43 334.5 419.91 309.06 399.2C306.44 397.07 305.14 397.58 303.01 399.56C286.03 415.31 268.95 430.95 251.92 446.65C243.67 454.26 234.51 460.13 222.98 460.96C204 462.32 190.72 453.14 183.27 436.59C176.82 422.27 172.25 407.09 167.03 392.23C155.81 360.31 144.64 328.38 133.64 296.39C132.34 292.62 130.19 290.96 126.55 289.93C98.83 282.09 71.15 274.1 43.46 266.14C42.35 265.82 41.25 265.44 40.15 265.09C28.04 261.24 18.34 254.65 14 242.01V232.01C18.9 220.04 28.51 213.45 40.07 209.03C105.64 184.01 171.2 158.98 236.76 133.95C301.71 109.14 366.62 84.2499 431.62 59.5599C447.58 53.4999 463.27 46.6199 479.66 41.7399C500.87 35.4199 521.58 46.0599 525.22 67.7799C525.29 68.2199 525.74 68.6099 526.01 69.0199V84.0199L526 83.9999ZM52.62 236.45C53.59 238.46 54.99 238.24 55.97 238.52C83.47 246.44 111.01 254.23 138.51 262.18C140.96 262.89 142.82 262.67 145.05 261.53C209.3 228.64 273.59 195.82 337.87 162.99C358.02 152.7 378.12 142.32 398.32 132.15C408.46 127.04 419.37 132.97 420.46 144.02C421.03 149.81 418.08 154.07 414.27 158.11C364.32 211.08 314.44 264.1 264.55 317.12C260.38 321.55 260.42 321.57 265.31 325.51C311.88 362.97 358.45 400.44 405.03 437.9C407.23 439.67 409.47 441.29 412.21 442.31C416.85 444.04 420.01 442.68 422.06 438.42C422.91 436.65 423.61 434.75 424.01 432.83C428.07 413.29 432.08 393.74 436.05 374.18C441.86 345.55 447.62 316.91 453.43 288.29C459.28 259.52 465.19 230.76 471.03 201.98C477.26 171.25 483.44 140.51 489.65 109.78C491.71 99.5699 493.87 89.3899 495.84 79.1699C497.34 71.4299 494.52 68.8899 486.96 70.9299C485.52 71.3199 484.08 71.7299 482.69 72.2699C416.94 97.3799 351.2 122.52 285.45 147.62C230.7 168.52 175.94 189.38 121.19 210.27C98.41 218.96 75.64 227.68 52.63 236.47L52.62 236.45ZM202.43 402.07C203.22 400.77 203.7 400.27 203.85 399.69C209.27 377.62 214.68 355.54 220.03 333.45C222.49 323.31 225.48 314 233.33 305.89C265.61 272.52 297.15 238.43 328.96 204.59C330.21 203.26 331.39 201.88 332.9 200.2C331.83 200.2 331.46 200.09 331.21 200.22C276 228.43 220.82 256.68 165.57 284.79C162.35 286.43 162.38 287.98 163.41 290.9C172.73 317.3 181.9 343.75 191.15 370.18C194.79 380.59 198.5 390.97 202.44 402.08L202.43 402.07ZM228.12 427.01C230.07 425.63 230.77 425.25 231.35 424.72C247.64 409.75 263.88 394.72 280.23 379.82C282.42 377.83 281.33 376.94 279.75 375.67C272.87 370.17 266.02 364.62 259.15 359.11C255.33 356.05 251.49 353.03 247.24 349.66C240.88 375.4 234.7 400.43 228.14 427.02L228.12 427.01Z" fill="white"/>
</svg>
